# xmcd CD database file
#
# Track frame offsets:
#	150
#	23184
#	40080
#	64197
#	80453
#	84675
#	99042
#	117459
#	125754
#	141320
#	146210
#	161694
#
# Disc length: 2463 seconds
#
# Revision: 0
# Processed by: cddbd v1.5.2PL0 Copyright (c) Steve Scherf et al.
# Submitted via: CDex 1.70beta2
#
DISCID=a8099d0c
DTITLE=Leo Fernández y Gabriel Domenicucci - Ni una nube
DYEAR=2007
DGENRE=Jazz
TTITLE0=Aire de Viernes
TTITLE1=Mar de Coral
TTITLE2=For Eros
TTITLE3=Ni una nube
TTITLE4=Giribone
TTITLE5=Leo
TTITLE6=¿Dónde estás?
TTITLE7=Pétalos
TTITLE8=L.P.I.
TTITLE9=Tarde de río
TTITLE10=A.M.
TTITLE11=Natan Song
EXTD=YEAR: 2007
EXTT0=
EXTT1=
EXTT2=
EXTT3=
EXTT4=
EXTT5=
EXTT6=
EXTT7=
EXTT8=
EXTT9=
EXTT10=
EXTT11=
PLAYORDER=
